<svg width="512" height="512" viewBox="0 0 512 512" fill="none" xmlns="http://www.w3.org/2000/svg">
  <rect width="512" height="512" rx="64" fill="#10b981"/>
  <path d="M256 96C194.144 96 144 146.144 144 208C144 269.856 194.144 320 256 320C317.856 320 368 269.856 368 208C368 146.144 317.856 96 256 96ZM256 288C211.888 288 176 252.112 176 208C176 163.888 211.888 128 256 128C300.112 128 336 163.888 336 208C336 252.112 300.112 288 256 288Z" fill="white"/>
  <path d="M288 208C288 225.673 273.673 240 256 240C238.327 240 224 225.673 224 208C224 190.327 238.327 176 256 176C273.673 176 288 190.327 288 208Z" fill="white"/>
  <rect x="240" y="320" width="32" height="96" rx="8" fill="white"/>
  <path d="M160 368H352C360.837 368 368 375.163 368 384C368 392.837 360.837 400 352 400H160C151.163 400 144 392.837 144 384C144 375.163 151.163 368 160 368Z" fill="white"/>
</svg>
